<svg xmlns="http://www.w3.org/2000/svg" viewBox="0 0 1600 800" width="1600" height="800">
	<style>
		tspan { white-space:pre }
		.shp0 { fill: #1f596b } 
		.shp1 { fill: #1b4958 } 
		.shp2 { fill: #22465c } 
		.shp3 { opacity: 0.239;mix-blend-mode: multiply;fill: #7b3ea3 } 
		.shp4 { fill: #e05edc } 
		.shp5 { fill: #ffd77e } 
		.shp6 { fill: #eca400 } 
		.shp7 { fill: #214a81 } 
		.shp8 { fill: #ffffff } 
		.shp9 { fill: #cee0f0 } 
		.shp10 { fill: #d49300 } 
		.shp11 { fill: #60e0ec } 
		.shp12 { fill: #71f2ff } 
		.shp13 { fill: #aef8ff } 
		.shp14 { fill: #143844 } 
	</style>
	<path id="Path 14" class="shp0" d="M1600 133.46L1600 800L927.67 800L922.01 800C909.65 753.78 908.66 653.75 957.5 629.17C982.04 616.83 1010.52 616.32 1037.9 614.18C1043.37 613.76 1048.9 613.24 1054.4 612.49C1076.52 609.58 1098.37 603.52 1114.61 588.7C1129.48 575.13 1137.23 556.33 1140.41 536.24C1141.64 528.38 1142.17 520.32 1142.15 512.28C1142.15 510.21 1142.1 508.16 1142.01 506.11C1141.84 501.61 1141.51 497.14 1141.04 492.76C1137.36 458.5 1127.12 424.69 1129.22 390.3C1133.93 313.2 1210.63 248.19 1287.47 256.23C1311.59 258.74 1334.68 267.31 1358.56 271.41C1420.2 281.92 1431.41 242.73 1456.15 200.06C1482.87 154.02 1548.25 128.07 1600 133.46Z" />
	<path id="Path 15" class="shp1" d="M1600 361.38L1600 367.52L1530.94 434.34L1519.15 445.73L1509.94 431.14L1466.57 362.5L1404.31 466.28L1362.99 387.99L1246.15 501.92L1234.4 513.38L1224.73 503.16L1195.19 471.92L1188.61 464.96L1181.86 471.81L1142.15 512.28C1142.15 510.21 1142.1 508.16 1142.01 506.11L1178.74 468.72L1188.65 458.61L1198.38 468.9L1227.31 499.46L1234.54 507.1L1243.26 498.6L1364.13 380.7L1404.56 457.29L1466.48 354.11L1513.25 428.13L1519.99 438.79L1528.63 430.44L1600 361.38ZM1200.72 461.79C1200.72 468.47 1195.31 473.88 1188.63 473.88C1181.95 473.88 1176.54 468.47 1176.54 461.79C1176.54 455.11 1181.95 449.69 1188.63 449.69C1195.31 449.69 1200.72 455.11 1200.72 461.79ZM1247.86 508.09C1247.86 514.77 1242.45 520.18 1235.77 520.18C1229.09 520.18 1223.68 514.77 1223.68 508.09C1223.68 501.41 1229.09 496 1235.77 496C1242.45 496 1247.86 501.41 1247.86 508.09ZM1478.62 358.3C1478.62 364.98 1473.21 370.39 1466.53 370.39C1459.85 370.39 1454.43 364.98 1454.43 358.3C1454.43 351.62 1459.85 346.2 1466.53 346.2C1473.21 346.2 1478.62 351.62 1478.62 358.3ZM1531.66 438.43C1531.66 445.1 1526.25 450.52 1519.57 450.52C1512.89 450.52 1507.47 445.1 1507.47 438.43C1507.47 431.75 1512.89 426.33 1519.57 426.33C1526.25 426.33 1531.66 431.75 1531.66 438.43Z" />
	<path id="Path 16" class="shp2" d="M1600 508.09L1600 800L927.67 800L922.01 800C909.65 753.78 908.66 653.75 957.5 629.16C982.04 616.83 1010.52 616.32 1037.9 614.18C1043.37 613.77 1048.9 613.23 1054.4 612.49C1076.52 609.58 1098.37 603.52 1114.61 588.7C1129.48 575.13 1137.23 556.33 1140.41 536.24L1160.9 536.24C1165.87 536.24 1169.9 540.27 1169.9 545.24L1169.9 584.92C1169.9 589.89 1173.93 593.92 1178.9 593.92L1183.06 593.92C1188.04 593.92 1192.06 597.94 1192.06 602.92L1192.06 619.2C1192.06 624.16 1196.09 628.19 1201.06 628.19L1222.83 628.19C1227.8 628.19 1231.83 624.16 1231.83 619.2L1231.83 571.45C1231.83 569.06 1232.77 566.78 1234.46 565.09L1252.18 547.37C1255.7 543.85 1261.4 543.85 1264.91 547.37L1280.78 563.24C1282.47 564.93 1283.42 567.21 1283.42 569.6L1283.42 598.16C1283.42 603.13 1287.45 607.16 1292.42 607.16C1297.39 607.16 1301.42 603.13 1301.42 598.16L1301.42 584.32C1301.42 579.35 1305.45 575.33 1310.42 575.33L1359.69 575.33C1364.66 575.33 1368.69 579.35 1368.69 584.32L1368.69 619.2C1368.69 624.16 1372.72 628.19 1377.69 628.19L1399.49 628.19C1401.87 628.19 1404.16 627.25 1405.85 625.56L1431.81 599.61C1435.33 596.1 1441.02 596.1 1444.54 599.61L1468.34 623.4C1470.03 625.09 1470.98 627.38 1470.98 629.76L1470.98 639C1470.98 643.97 1475 648 1479.97 648L1485.83 648C1490.8 648 1494.83 643.97 1494.83 639L1494.83 595.86C1494.83 593.47 1495.78 591.18 1497.47 589.5L1511.75 575.21C1515.27 571.7 1520.97 571.7 1524.48 575.21L1539.82 590.55C1541.51 592.24 1542.46 594.53 1542.46 596.92L1542.46 613.31C1542.46 618.28 1546.49 622.31 1551.46 622.31L1554.01 622.31C1558.98 622.31 1563.01 618.28 1563.01 613.31L1563.01 560.55C1563.01 555.58 1567.04 551.55 1572.01 551.55L1579.46 551.55C1584.43 551.55 1588.46 547.52 1588.46 542.56L1588.46 517.09C1588.46 512.12 1592.49 508.09 1597.46 508.09L1600 508.09Z" />
	<path id="Path 17" class="shp3" d="M973.53 653.67C998.06 641.33 1026.55 640.82 1053.94 638.68C1081.31 636.55 1110.35 631.72 1130.63 613.2C1156.07 589.97 1160.72 551.5 1157.06 517.25C1153.4 483 1143.14 449.18 1145.24 414.8C1149.95 337.69 1226.65 272.69 1303.49 280.72C1327.62 283.24 1350.7 291.82 1374.6 295.9C1436.22 306.41 1447.43 267.24 1472.18 224.56C1496.19 183.16 1551.48 158.02 1600 157.28L1600 133.46C1548.26 128.06 1482.86 154.02 1456.16 200.05C1431.4 242.74 1420.19 281.91 1358.57 271.4C1334.67 267.32 1311.59 258.74 1287.47 256.22C1210.63 248.19 1133.92 313.19 1129.21 390.3C1127.11 424.68 1137.37 458.5 1141.03 492.75C1144.7 527 1140.04 565.47 1114.6 588.7C1094.33 607.22 1065.28 612.05 1037.91 614.18C1010.53 616.32 982.03 616.83 957.51 629.17C908.66 653.76 909.65 753.79 922.01 800L933.31 800C926.54 749.47 932.15 674.5 973.53 653.67Z" />
	<path id="Path 18" class="shp4" d="M1271.21 518.96C1279.57 504.49 1293.59 487.64 1315.57 480.91L1297.93 411.46C1297.93 411.46 1281.95 445.49 1255.84 515.57C1254.46 519.29 1259.3 522.59 1262.9 522.59L1265.26 522.59C1267.67 522.59 1269.9 521.23 1271.21 518.96Z" />
	<path id="Path 19" class="shp5" d="M1297.93 411.46C1297.93 411.46 1281.95 445.49 1255.84 515.57C1254.75 518.51 1257.55 521.19 1260.55 522.18C1270.05 488 1285.64 456.54 1301.41 425.16L1297.93 411.46Z" />
	<path id="Path 20" class="shp6" d="M1260.55 522.18C1261.34 522.44 1262.15 522.59 1262.9 522.59L1265.26 522.59C1267.67 522.59 1269.9 521.22 1271.21 518.96C1279.58 504.49 1293.59 487.64 1315.57 480.92L1301.41 425.16C1285.64 456.54 1270.05 488 1260.55 522.18Z" />
	<path id="Path 21" class="shp6" d="M1439.94 518.96C1431.58 504.49 1417.56 487.64 1395.58 480.91L1413.22 411.46C1413.22 411.46 1429.21 445.49 1455.31 515.57C1456.7 519.29 1451.85 522.59 1448.25 522.59L1445.89 522.59C1443.48 522.59 1441.25 521.23 1439.94 518.96Z" />
	<path id="Path 22" class="shp7" d="M1375.68 501.43L1333.79 501.43C1332.14 501.43 1330.71 500.15 1330.34 498.35L1328.04 487.01C1327.54 484.54 1329.22 482.19 1331.49 482.19L1377.98 482.19C1380.25 482.19 1381.93 484.54 1381.43 487.01L1379.13 498.35C1378.77 500.15 1377.33 501.43 1375.68 501.43Z" />
	<path id="Path 23" class="shp8" d="M1294.41 384.76C1294.41 384.76 1300.84 450.72 1320.71 492.51C1320.71 492.51 1352.27 475.53 1389.68 492.51C1389.68 492.51 1412.47 457.25 1417.15 379.54C1419.84 334.76 1416.62 283.63 1403.35 239.59L1310.65 239.59C1298.31 275.47 1289.52 323.65 1294.41 384.76ZM1414.18 291.99C1411.82 274.04 1408.24 256.38 1403.22 239.73L1310.52 239.73C1298.18 275.61 1289.4 323.8 1294.28 384.9C1294.28 384.9 1296.47 407.23 1302.2 434.12C1357.45 410.98 1397.91 355.31 1414.18 291.99Z" />
	<path id="Path 24" class="shp9" d="M1302.2 434.12C1306.32 453.46 1312.27 475.17 1320.59 492.65C1320.59 492.65 1352.15 475.67 1389.55 492.65C1389.55 492.65 1412.34 457.39 1417.02 379.68C1418.7 351.82 1418.08 321.52 1414.18 291.98C1397.91 355.3 1357.45 410.98 1302.2 434.12Z" />
	<path id="Path 24 copy" class="shp9" d="M1302.2 434.12C1306.32 453.46 1312.27 475.17 1320.59 492.65C1320.59 492.65 1352.15 475.67 1389.55 492.65C1389.55 492.65 1412.34 457.39 1417.02 379.68C1418.7 351.82 1418.08 321.52 1414.18 291.98C1397.91 355.3 1357.45 410.98 1302.2 434.12Z" />
	<path id="Path 25" class="shp6" d="M1348.23 168.26C1338.91 180.05 1322.92 203.67 1310.52 239.73L1403.22 239.73C1394.73 211.54 1382.13 186.25 1364.29 167.39C1359.69 162.54 1352.42 162.97 1348.23 168.26ZM1357.42 164.09C1354.06 163.84 1350.64 165.22 1348.23 168.26C1338.91 180.05 1322.92 203.67 1310.52 239.73L1364.81 239.73C1366.27 237.44 1367.38 234.75 1368.04 231.81C1370.39 206.89 1366.4 184.33 1357.42 164.09Z" />
	<path id="Path 26" class="shp5" d="M1343.7 210.37C1350.21 199.37 1352.68 188.38 1349.22 185.83C1345.76 183.27 1337.68 190.11 1331.17 201.11C1324.66 212.11 1322.2 223.09 1325.66 225.65C1329.12 228.21 1337.2 221.36 1343.7 210.37Z" />
	<path id="Path 27" class="shp10" d="M1364.29 167.39C1362.33 165.33 1359.9 164.27 1357.42 164.09C1366.4 184.33 1370.39 206.89 1368.04 231.81C1367.38 234.75 1366.27 237.44 1364.81 239.73L1403.22 239.73C1394.73 211.54 1382.13 186.25 1364.29 167.39Z" />
	<path id="Path 28" class="shp6" d="M1361.35 516.76C1368.27 488.89 1374.8 438.51 1354.03 381.71C1354.03 381.71 1330.59 441.3 1347.61 516.56C1348.41 520.1 1351.24 522.59 1354.51 522.59C1357.71 522.59 1360.49 520.21 1361.35 516.76ZM1353.39 383.49C1349.99 393.1 1334.68 441.32 1344.85 502.48C1356.46 464.42 1356.79 423.95 1353.39 383.49Z" />
	<path id="Path 29" class="shp10" d="M1354.03 381.71C1354.03 381.71 1353.79 382.34 1353.39 383.49C1356.79 423.95 1356.46 464.42 1344.85 502.48C1345.62 507.11 1346.53 511.8 1347.61 516.56C1348.41 520.1 1351.24 522.59 1354.51 522.59C1357.7 522.59 1360.5 520.21 1361.35 516.76C1368.27 488.89 1374.81 438.51 1354.03 381.71Z" />
	<path id="Path 30" class="shp6" d="M1396.92 314.58C1396.92 336.66 1379.03 354.55 1356.96 354.55C1334.89 354.55 1316.99 336.66 1316.99 314.58C1316.99 292.51 1334.89 274.62 1356.96 274.62C1379.03 274.62 1396.92 292.51 1396.92 314.58Z" />
	<path id="Path 31" class="shp7" d="M1384.7 314.58C1384.7 329.91 1372.28 342.33 1356.96 342.33C1341.63 342.33 1329.21 329.91 1329.21 314.58C1329.21 299.26 1341.63 286.84 1356.96 286.84C1372.28 286.84 1384.7 299.26 1384.7 314.58Z" />
	<path id="Path 32" class="shp1" d="M1358.98 286.94C1351.31 302.5 1344.51 318.23 1336.82 333.63C1340.23 337.23 1344.6 339.9 1349.5 341.28C1355.94 323.95 1363.5 307.37 1371.44 290.95C1367.76 288.7 1363.53 287.27 1358.98 286.94Z" />
	<path id="Path 33" class="shp0" d="M1371.44 290.95C1363.5 307.37 1355.94 323.95 1349.5 341.27C1351.88 341.94 1354.37 342.33 1356.96 342.33C1372.28 342.33 1384.7 329.91 1384.7 314.58C1384.7 304.57 1379.39 295.82 1371.44 290.95ZM1356.96 286.84C1341.64 286.84 1329.21 299.26 1329.21 314.58C1329.21 321.97 1332.12 328.66 1336.82 333.63C1344.51 318.23 1351.31 302.5 1358.98 286.94C1358.31 286.89 1357.64 286.84 1356.96 286.84Z" />
	<path id="Path 34" class="shp8" d="M1531.57 287.72L1534.56 295.03C1534.7 295.38 1534.98 295.66 1535.33 295.8L1542.64 298.79C1543.81 299.27 1543.81 300.93 1542.64 301.41L1535.33 304.4C1534.98 304.54 1534.7 304.82 1534.56 305.17L1531.57 312.48C1531.09 313.65 1529.43 313.65 1528.95 312.48L1525.96 305.17C1525.82 304.82 1525.54 304.54 1525.19 304.4L1517.88 301.41C1516.71 300.93 1516.71 299.27 1517.88 298.79L1525.19 295.8C1525.54 295.66 1525.82 295.38 1525.96 295.03L1528.95 287.72C1529.43 286.55 1531.09 286.55 1531.57 287.72ZM1233.15 392.38L1236.14 399.69C1236.28 400.04 1236.56 400.32 1236.91 400.46L1244.22 403.45C1245.39 403.93 1245.39 405.59 1244.22 406.07L1236.91 409.06C1236.56 409.2 1236.28 409.48 1236.14 409.83L1233.15 417.14C1232.67 418.31 1231.01 418.31 1230.53 417.14L1227.54 409.83C1227.39 409.48 1227.12 409.2 1226.77 409.06L1219.45 406.07C1218.29 405.59 1218.29 403.93 1219.45 403.45L1226.77 400.46C1227.12 400.32 1227.39 400.04 1227.54 399.69L1230.53 392.38C1231.01 391.21 1232.67 391.21 1233.15 392.38ZM1435.57 542.08L1438.56 549.39C1438.7 549.74 1438.98 550.02 1439.33 550.16L1446.64 553.15C1447.81 553.63 1447.81 555.29 1446.64 555.77L1439.33 558.76C1438.98 558.91 1438.7 559.18 1438.56 559.53L1435.57 566.84C1435.09 568.01 1433.43 568.01 1432.95 566.84L1429.96 559.53C1429.82 559.18 1429.54 558.91 1429.19 558.76L1421.88 555.77C1420.71 555.29 1420.71 553.63 1421.88 553.15L1429.19 550.16C1429.54 550.02 1429.82 549.74 1429.96 549.39L1432.95 542.08C1433.43 540.91 1435.09 540.91 1435.57 542.08Z" />
	<path id="Path 35" class="shp11" d="M1600 698.93L1600 800L927.67 800C927.8 799.16 928 798.33 928.27 797.51C931.35 787.69 940.34 780.26 950.36 777.9C960.38 775.57 965.74 774.82 974.61 780.04C965.36 762.06 968.2 738.56 981.47 723.31C994.75 708.05 1017.62 701.99 1036.69 708.69C1050.17 713.4 1062.8 724.24 1069.38 737.33C1069.12 725.59 1074.08 713.62 1083.42 706.42C1096.48 696.33 1116.95 696.42 1129.9 706.51C1130.96 707.32 1131.97 708.2 1132.92 709.15C1132.15 708.01 1131.44 706.79 1130.8 705.58C1122.98 690.53 1126.2 670.62 1137.41 657.67C1149.53 643.66 1169.33 637.6 1187.72 639.78C1206.12 641.98 1223.79 653.64 1237.22 666.37C1332.67 635.53 1335.76 501.42 1335.76 501.42L1353.54 496L1371.34 501.42C1371.34 501.42 1374.4 635.53 1469.87 666.37C1483.31 653.64 1500.98 641.98 1519.37 639.78C1537.77 637.6 1557.57 643.66 1569.69 657.67C1581.8 671.68 1584.58 693.82 1574.16 709.15C1580.86 702.43 1590.39 699.02 1600 698.93Z" />
	<path id="Path 36" class="shp12" d="M1554.82 800L1235.77 800C1237.64 783.24 1245.04 766.82 1259.83 759.22C1277.23 750.26 1300.53 754.95 1313.11 769.95C1305.47 735.43 1331.8 697.28 1366.76 692.12C1401.71 686.99 1437.91 715.96 1440.53 751.2C1441.65 735.61 1458.33 723.1 1473.62 726.38C1488.88 729.66 1498.95 747.92 1493.58 762.59C1507.59 749.95 1531.45 750.39 1544.99 763.54C1554.47 772.75 1557.86 787.22 1554.82 800Z" />
	<path id="Path 37" class="shp13" d="M1328.84 800L1054.71 800C1052.73 785.83 1060.17 770.59 1072.89 763.85C1086.81 756.47 1105.66 760.1 1115.89 772.13C1109.81 751.51 1112.74 727.81 1126 710.91C1127.21 709.37 1128.51 707.89 1129.9 706.51C1130.18 706.2 1130.49 705.89 1130.8 705.58C1144.57 692.3 1165.59 686.31 1183.54 692.85C1201.27 699.3 1213.59 718.8 1211.49 737.19C1217.16 722.35 1235.24 712.46 1250.64 717.54C1268.5 723.45 1277.27 747.74 1267.29 763.72C1279.76 752.33 1300.23 751.03 1314.04 760.74C1326.2 769.29 1332.06 785.61 1328.84 800Z" />
	<path id="Path 38" class="shp14" d="M1561.91 519.9C1566.94 540.68 1554.17 561.6 1533.39 566.63C1512.61 571.65 1491.69 558.89 1486.66 538.11C1481.63 517.33 1494.4 496.41 1515.18 491.38C1535.96 486.35 1556.88 499.12 1561.91 519.9Z" />
	<path id="Path 39" class="shp1" d="M1561.91 519.9C1558.91 507.49 1550.22 497.98 1539.3 493.37C1544.47 498.31 1548.35 504.72 1550.16 512.19C1555.19 532.97 1542.42 553.89 1521.64 558.92C1513.27 560.94 1504.89 560.04 1497.52 556.92C1506.73 565.74 1520.08 569.85 1533.39 566.63C1554.17 561.6 1566.94 540.68 1561.91 519.9Z" />
	<path id="Path 40" class="shp0" d="M1389.21 199.6C1390.23 201.65 1391.07 203.82 1391.72 206.11C1399.01 205.8 1403.55 206.4 1405.19 207.27C1404.1 208.88 1400.15 211.58 1393.17 214.76C1385.15 218.42 1373.13 222.71 1356.91 226.64C1340.68 230.57 1328.03 232.24 1319.22 232.65C1311.55 233.01 1306.81 232.42 1305.11 231.49C1306.17 229.96 1309.94 227.35 1316.56 224.3C1316.09 221.96 1315.84 219.65 1315.81 217.37C1305.35 221.98 1297.05 227.5 1298.41 233.11C1299.83 239 1310.71 239.93 1322.84 239.01C1338.04 237.87 1355.23 233.85 1358.46 233.06C1361.69 232.28 1378.83 228 1392.88 222.06C1404.08 217.33 1413.31 211.54 1411.89 205.65C1410.53 200.04 1400.63 198.92 1389.21 199.6Z" />
</svg>