<svg xmlns="http://www.w3.org/2000/svg" viewBox="0 0 1600 800" width="1600" height="800">
	<defs>
		<clipPath clipPathUnits="userSpaceOnUse" id="cp1">
			<path d="M50 -100L1550 -100L1550 900L50 900Z" />
		</clipPath>
	</defs>
	<style>
		tspan { white-space:pre }
		.shp0 { fill: #1f596b } 
		.shp1 { fill: #1b4958 } 
		.shp2 { fill: #22465c } 
		.shp3 { opacity: 0.239;mix-blend-mode: multiply;fill: #7b3ea3 } 
		.shp4 { fill: #e05edc } 
		.shp5 { fill: #ffd77e } 
		.shp6 { fill: #eca400 } 
		.shp7 { fill: #214a81 } 
		.shp8 { fill: #ffffff } 
		.shp9 { fill: #cee0f0 } 
		.shp10 { fill: #d49300 } 
		.shp11 { fill: #60e0ec } 
		.shp12 { fill: #71f2ff } 
		.shp13 { fill: #aef8ff } 
		.shp14 { fill: #143844 } 
	</style>
	<g id="Page 1" clip-path="url(#cp1)">
		<path id="Path 14" class="shp0" d="M1549.14 44.69L1549.14 799.76L787.51 799.76L781.1 799.76C767.1 747.4 765.98 634.08 821.3 606.23C849.1 592.26 881.37 591.68 912.39 589.26C918.57 588.79 924.84 588.19 931.08 587.34C956.13 584.05 980.89 577.18 999.28 560.39C1016.13 545.02 1024.91 523.73 1028.5 500.97C1029.9 492.06 1030.5 482.93 1030.48 473.82C1030.48 471.48 1030.43 469.15 1030.33 466.83C1030.13 461.74 1029.75 456.67 1029.23 451.71C1025.06 412.9 1013.46 374.6 1015.83 335.64C1021.17 248.3 1108.06 174.66 1195.1 183.77C1222.43 186.61 1248.58 196.32 1275.63 200.96C1345.46 212.86 1358.16 168.47 1386.18 120.13C1416.45 67.98 1490.52 38.58 1549.14 44.69Z" />
		<path id="Path 15" class="shp1" d="M1549.14 302.88L1549.14 309.84L1470.9 385.53L1457.56 398.43L1447.12 381.91L1397.99 304.15L1327.47 421.71L1280.65 333.02L1148.29 462.09L1134.99 475.07L1124.03 463.49L1090.56 428.1L1083.11 420.22L1075.47 427.98L1030.48 473.82C1030.48 471.48 1030.43 469.15 1030.33 466.83L1071.93 424.48L1083.16 413.03L1094.18 424.69L1126.95 459.3L1135.14 467.95L1145.02 458.32L1281.95 324.76L1327.74 411.53L1397.89 294.64L1450.87 378.49L1458.5 390.57L1468.29 381.11L1549.14 302.88ZM1096.83 416.62C1096.83 424.19 1090.7 430.32 1083.13 430.32C1075.57 430.32 1069.43 424.19 1069.43 416.62C1069.43 409.06 1075.57 402.92 1083.13 402.92C1090.7 402.92 1096.83 409.06 1096.83 416.62ZM1150.23 469.08C1150.23 476.64 1144.1 482.78 1136.54 482.78C1128.97 482.78 1122.83 476.64 1122.83 469.08C1122.83 461.51 1128.97 455.38 1136.54 455.38C1144.1 455.38 1150.23 461.51 1150.23 469.08ZM1411.64 299.39C1411.64 306.96 1405.51 313.09 1397.94 313.09C1390.38 313.09 1384.24 306.96 1384.24 299.39C1384.24 291.82 1390.38 285.69 1397.94 285.69C1405.51 285.69 1411.64 291.82 1411.64 299.39ZM1471.72 390.16C1471.72 397.73 1465.59 403.86 1458.02 403.86C1450.46 403.86 1444.33 397.73 1444.33 390.16C1444.33 382.59 1450.46 376.46 1458.02 376.46C1465.59 376.46 1471.72 382.59 1471.72 390.16Z" />
		<path id="Path 16" class="shp2" d="M1549.14 469.08L1549.14 799.76L787.51 799.76L781.1 799.76C767.1 747.4 765.98 634.08 821.3 606.23C849.1 592.25 881.37 591.68 912.39 589.26C918.57 588.79 924.84 588.19 931.08 587.34C956.13 584.04 980.89 577.18 999.28 560.39C1016.13 545.02 1024.91 523.73 1028.5 500.97L1051.72 500.97C1057.35 500.97 1061.92 505.53 1061.92 511.16L1061.92 556.11C1061.92 561.74 1066.48 566.3 1072.11 566.3L1076.83 566.3C1082.46 566.3 1087.02 570.87 1087.02 576.5L1087.02 594.94C1087.02 600.57 1091.59 605.13 1097.22 605.13L1121.87 605.13C1127.5 605.13 1132.07 600.57 1132.07 594.94L1132.07 540.85C1132.07 538.15 1133.14 535.56 1135.05 533.65L1155.13 513.57C1159.11 509.59 1165.56 509.59 1169.55 513.57L1187.52 531.55C1189.44 533.46 1190.51 536.05 1190.51 538.76L1190.51 571.11C1190.51 576.74 1195.07 581.3 1200.71 581.3C1206.34 581.3 1210.9 576.74 1210.9 571.11L1210.9 555.43C1210.9 549.81 1215.46 545.24 1221.09 545.24L1276.92 545.24C1282.55 545.24 1287.11 549.81 1287.11 555.43L1287.11 594.94C1287.11 600.57 1291.68 605.13 1297.31 605.13L1322 605.13C1324.7 605.13 1327.29 604.06 1329.2 602.15L1358.61 572.75C1362.59 568.78 1369.05 568.78 1373.03 572.75L1399.99 599.7C1401.9 601.61 1402.98 604.21 1402.98 606.91L1402.98 617.37C1402.98 623 1407.54 627.57 1413.17 627.57L1419.81 627.57C1425.44 627.57 1430.01 623 1430.01 617.37L1430.01 568.5C1430.01 565.8 1431.08 563.21 1432.99 561.3L1449.17 545.11C1453.15 541.13 1459.61 541.13 1463.59 545.11L1480.97 562.49C1482.88 564.4 1483.96 567 1483.96 569.7L1483.96 588.28C1483.96 593.91 1488.52 598.47 1494.15 598.47L1497.05 598.47C1502.68 598.47 1507.24 593.91 1507.24 588.28L1507.24 528.51C1507.24 522.88 1511.81 518.31 1517.44 518.31L1525.87 518.31C1531.5 518.31 1536.06 513.75 1536.06 508.12L1536.06 479.27C1536.06 473.64 1540.63 469.08 1546.26 469.08L1549.14 469.08Z" />
		<path id="Path 17" class="shp3" d="M839.47 633.99C867.25 620.01 899.53 619.43 930.55 617.01C961.56 614.59 994.46 609.13 1017.43 588.15C1046.25 561.83 1051.52 518.26 1047.37 479.45C1043.22 440.65 1031.6 402.35 1033.97 363.39C1039.31 276.04 1126.21 202.41 1213.25 211.51C1240.58 214.36 1266.73 224.08 1293.8 228.71C1363.6 240.61 1376.31 196.24 1404.35 147.88C1431.55 100.99 1494.17 72.51 1549.14 71.68L1549.14 44.68C1490.53 38.57 1416.44 67.97 1386.19 120.13C1358.15 168.48 1345.45 212.86 1275.64 200.95C1248.57 196.33 1222.43 186.61 1195.1 183.76C1108.05 174.66 1021.16 248.29 1015.82 335.64C1013.44 374.59 1025.07 412.9 1029.22 451.7C1033.36 490.5 1028.09 534.08 999.27 560.39C976.31 581.37 943.4 586.84 912.4 589.26C881.37 591.68 849.09 592.26 821.31 606.24C765.98 634.09 767.1 747.41 781.1 799.76L793.9 799.76C786.24 742.52 792.59 657.59 839.47 633.99Z" />
		<path id="Path 18" class="shp4" d="M1176.68 481.39C1186.16 465 1202.04 445.91 1226.94 438.29L1206.95 359.62C1206.95 359.62 1188.84 398.16 1159.27 477.56C1157.71 481.76 1163.19 485.51 1167.27 485.51L1169.94 485.51C1172.67 485.51 1175.2 483.96 1176.68 481.39Z" />
		<path id="Path 19" class="shp5" d="M1206.95 359.62C1206.95 359.62 1188.85 398.16 1159.27 477.55C1158.03 480.88 1161.21 483.91 1164.61 485.04C1175.37 446.32 1193.03 410.68 1210.89 375.14L1206.95 359.62Z" />
		<path id="Path 20" class="shp6" d="M1164.61 485.04C1165.5 485.33 1166.42 485.51 1167.27 485.51L1169.94 485.51C1172.67 485.51 1175.2 483.96 1176.68 481.39C1186.16 465 1202.04 445.91 1226.94 438.29L1210.89 375.14C1193.03 410.68 1175.37 446.32 1164.61 485.04Z" />
		<path id="Path 21" class="shp6" d="M1367.82 481.39C1358.35 465 1342.47 445.91 1317.57 438.29L1337.56 359.62C1337.56 359.62 1355.66 398.16 1385.24 477.56C1386.8 481.76 1381.32 485.51 1377.24 485.51L1374.57 485.51C1371.83 485.51 1369.31 483.96 1367.82 481.39Z" />
		<path id="Path 22" class="shp7" d="M1295.03 461.53L1247.57 461.53C1245.7 461.53 1244.08 460.08 1243.67 458.04L1241.06 445.2C1240.49 442.4 1242.4 439.73 1244.97 439.73L1297.63 439.73C1300.2 439.73 1302.11 442.4 1301.54 445.2L1298.94 458.04C1298.52 460.08 1296.9 461.53 1295.03 461.53Z" />
		<path id="Path 23" class="shp8" d="M1202.96 329.37C1202.96 329.37 1210.24 404.08 1232.75 451.43C1232.75 451.43 1268.51 432.19 1310.88 451.43C1310.88 451.43 1336.7 411.48 1342 323.45C1345.05 272.72 1341.41 214.81 1326.37 164.91L1221.35 164.91C1207.38 205.56 1197.43 260.14 1202.96 329.37ZM1338.64 224.27C1335.96 203.94 1331.91 183.93 1326.23 165.07L1221.21 165.07C1207.24 205.72 1197.28 260.3 1202.82 329.53C1202.82 329.53 1205.29 354.82 1211.78 385.28C1274.38 359.07 1320.2 296 1338.64 224.27Z" />
		<path id="Path 24" class="shp9" d="M1211.78 385.28C1216.45 407.19 1223.2 431.78 1232.61 451.59C1232.61 451.59 1268.37 432.35 1310.74 451.59C1310.74 451.59 1336.56 411.64 1341.86 323.61C1343.76 292.06 1343.06 257.72 1338.64 224.27C1320.2 296 1274.38 359.06 1211.78 385.28Z" />
		<path id="Path 25" class="shp6" d="M1263.93 84.11C1253.37 97.47 1235.26 124.23 1221.21 165.07L1326.23 165.07C1316.6 133.14 1302.33 104.49 1282.12 83.12C1276.92 77.63 1268.67 78.12 1263.93 84.11ZM1274.34 79.39C1270.54 79.11 1266.66 80.67 1263.93 84.11C1253.37 97.46 1235.26 124.23 1221.21 165.07L1282.71 165.07C1284.37 162.48 1285.62 159.44 1286.37 156.1C1289.03 127.87 1284.51 102.31 1274.34 79.39Z" />
		<path id="Path 26" class="shp5" d="M1258.8 131.81C1266.17 119.36 1268.97 106.91 1265.05 104.01C1261.13 101.12 1251.98 108.87 1244.61 121.32C1237.23 133.78 1234.44 146.23 1238.36 149.12C1242.28 152.02 1251.44 144.27 1258.8 131.81Z" />
		<path id="Path 27" class="shp10" d="M1282.12 83.12C1279.91 80.79 1277.15 79.6 1274.34 79.39C1284.52 102.31 1289.03 127.87 1286.37 156.1C1285.62 159.43 1284.37 162.48 1282.71 165.07L1326.23 165.07C1316.6 133.14 1302.33 104.49 1282.12 83.12Z" />
		<path id="Path 28" class="shp6" d="M1278.8 478.9C1286.63 447.33 1294.04 390.26 1270.51 325.91C1270.51 325.91 1243.94 393.41 1263.23 478.67C1264.13 482.68 1267.34 485.51 1271.04 485.51C1274.67 485.51 1277.82 482.8 1278.8 478.9ZM1269.77 327.92C1265.93 338.81 1248.58 393.44 1260.1 462.72C1273.25 419.61 1273.62 373.76 1269.77 327.92Z" />
		<path id="Path 29" class="shp10" d="M1270.5 325.91C1270.5 325.91 1270.23 326.62 1269.77 327.92C1273.62 373.76 1273.26 419.61 1260.1 462.72C1260.97 467.96 1262.01 473.28 1263.23 478.67C1264.13 482.68 1267.34 485.51 1271.04 485.51C1274.66 485.51 1277.83 482.8 1278.79 478.9C1286.63 447.33 1294.04 390.26 1270.5 325.91Z" />
		<path id="Path 30" class="shp6" d="M1319.09 249.87C1319.09 274.87 1298.82 295.14 1273.82 295.14C1248.82 295.14 1228.55 274.87 1228.55 249.87C1228.55 224.87 1248.82 204.6 1273.82 204.6C1298.82 204.6 1319.09 224.87 1319.09 249.87Z" />
		<path id="Path 31" class="shp7" d="M1305.25 249.87C1305.25 267.23 1291.18 281.3 1273.82 281.3C1256.46 281.3 1242.39 267.23 1242.39 249.87C1242.39 232.51 1256.46 218.44 1273.82 218.44C1291.18 218.44 1305.25 232.51 1305.25 249.87Z" />
		<path id="Path 32" class="shp1" d="M1276.11 218.56C1267.42 236.18 1259.72 254 1251 271.45C1254.87 275.53 1259.82 278.55 1265.37 280.11C1272.66 260.48 1281.23 241.69 1290.22 223.1C1286.06 220.54 1281.26 218.93 1276.11 218.56Z" />
		<path id="Path 33" class="shp0" d="M1290.22 223.1C1281.23 241.69 1272.66 260.48 1265.37 280.11C1268.06 280.86 1270.88 281.3 1273.82 281.3C1291.18 281.3 1305.25 267.23 1305.25 249.87C1305.25 238.53 1299.23 228.61 1290.22 223.1ZM1273.82 218.44C1256.46 218.44 1242.39 232.51 1242.39 249.87C1242.39 258.23 1245.68 265.82 1251.01 271.45C1259.72 254 1267.42 236.18 1276.11 218.56C1275.35 218.5 1274.59 218.44 1273.82 218.44Z" />
		<path id="Path 34" class="shp8" d="M1471.62 219.44L1475.01 227.72C1475.17 228.11 1475.49 228.43 1475.88 228.59L1484.16 231.98C1485.49 232.52 1485.49 234.4 1484.16 234.94L1475.88 238.33C1475.49 238.5 1475.17 238.81 1475.01 239.21L1471.62 247.49C1471.08 248.81 1469.2 248.81 1468.66 247.49L1465.27 239.21C1465.11 238.81 1464.79 238.5 1464.39 238.33L1456.11 234.94C1454.78 234.4 1454.78 232.52 1456.11 231.98L1464.39 228.59C1464.79 228.43 1465.11 228.11 1465.27 227.72L1468.66 219.44C1469.2 218.11 1471.08 218.11 1471.62 219.44ZM1133.56 338L1136.95 346.28C1137.11 346.67 1137.43 346.99 1137.82 347.15L1146.1 350.54C1147.43 351.08 1147.43 352.96 1146.1 353.5L1137.82 356.89C1137.43 357.05 1137.11 357.37 1136.95 357.77L1133.56 366.05C1133.02 367.38 1131.14 367.38 1130.6 366.05L1127.21 357.77C1127.05 357.37 1126.73 357.05 1126.33 356.89L1118.05 353.5C1116.73 352.96 1116.73 351.08 1118.05 350.54L1126.33 347.15C1126.73 346.99 1127.05 346.67 1127.21 346.28L1130.6 338C1131.14 336.67 1133.02 336.67 1133.56 338ZM1362.87 507.58L1366.26 515.86C1366.42 516.26 1366.74 516.58 1367.13 516.74L1375.41 520.12C1376.74 520.67 1376.74 522.55 1375.41 523.09L1367.13 526.48C1366.74 526.64 1366.42 526.96 1366.26 527.35L1362.87 535.63C1362.33 536.96 1360.45 536.96 1359.91 535.63L1356.52 527.35C1356.35 526.96 1356.04 526.64 1355.64 526.48L1347.36 523.09C1346.03 522.55 1346.03 520.67 1347.36 520.12L1355.64 516.74C1356.04 516.58 1356.35 516.26 1356.52 515.86L1359.91 507.58C1360.45 506.25 1362.33 506.25 1362.87 507.58Z" />
		<path id="Path 35" class="shp11" d="M1549.14 685.26L1549.14 799.76L787.51 799.76C787.66 798.81 787.89 797.86 788.19 796.94C791.68 785.81 801.86 777.4 813.22 774.73C824.57 772.08 830.64 771.23 840.69 777.15C830.21 756.78 833.43 730.16 848.45 712.89C863.5 695.6 889.4 688.73 911.02 696.32C926.29 701.66 940.59 713.93 948.05 728.76C947.75 715.46 953.36 701.91 963.95 693.75C978.74 682.32 1001.93 682.42 1016.6 693.85C1017.8 694.77 1018.95 695.77 1020.02 696.84C1019.15 695.55 1018.35 694.17 1017.62 692.8C1008.76 675.75 1012.41 653.19 1025.11 638.52C1038.84 622.65 1061.27 615.79 1082.11 618.26C1102.94 620.75 1122.96 633.95 1138.18 648.38C1246.31 613.44 1249.81 461.52 1249.81 461.52L1269.94 455.38L1290.1 461.52C1290.1 461.52 1293.58 613.44 1401.73 648.38C1416.95 633.95 1436.97 620.75 1457.8 618.26C1478.64 615.79 1501.07 622.65 1514.8 638.52C1528.53 654.39 1531.67 679.47 1519.87 696.84C1527.45 689.23 1538.26 685.36 1549.14 685.26Z" />
		<path id="Path 36" class="shp12" d="M1497.96 799.76L1136.53 799.76C1138.66 780.77 1147.04 762.17 1163.79 753.57C1183.5 743.41 1209.9 748.72 1224.15 765.72C1215.49 726.61 1245.31 683.39 1284.92 677.55C1324.52 671.74 1365.52 704.55 1368.49 744.48C1369.76 726.81 1388.65 712.64 1405.97 716.36C1423.27 720.07 1434.67 740.76 1428.58 757.38C1444.45 743.06 1471.48 743.56 1486.83 758.46C1497.56 768.89 1501.4 785.28 1497.96 799.76Z" />
		<path id="Path 37" class="shp13" d="M1241.97 799.76L931.43 799.76C929.18 783.71 937.62 766.44 952.02 758.81C967.79 750.45 989.15 754.56 1000.73 768.19C993.84 744.83 997.16 717.98 1012.18 698.84C1013.56 697.09 1015.03 695.42 1016.6 693.85C1016.92 693.5 1017.27 693.15 1017.62 692.8C1033.22 677.75 1057.03 670.96 1077.36 678.37C1097.46 685.69 1111.41 707.77 1109.03 728.61C1115.45 711.79 1135.94 700.59 1153.38 706.35C1173.62 713.04 1183.55 740.56 1172.25 758.65C1186.37 745.75 1209.55 744.28 1225.2 755.29C1238.98 764.97 1245.61 783.46 1241.97 799.76Z" />
		<path id="Path 38" class="shp14" d="M1505.99 482.45C1511.69 505.99 1497.22 529.69 1473.68 535.39C1450.14 541.08 1426.44 526.62 1420.75 503.08C1415.05 479.54 1429.52 455.84 1453.06 450.15C1476.6 444.45 1500.3 458.91 1505.99 482.45Z" />
		<path id="Path 39" class="shp1" d="M1505.99 482.45C1502.59 468.4 1492.75 457.63 1480.38 452.4C1486.24 458 1490.64 465.26 1492.68 473.72C1498.38 497.26 1483.91 520.96 1460.37 526.65C1450.89 528.95 1441.39 527.93 1433.04 524.4C1443.48 534.38 1458.6 539.04 1473.68 535.39C1497.22 529.69 1511.69 505.99 1505.99 482.45Z" />
		<path id="Path 40" class="shp0" d="M1310.36 119.62C1311.51 121.93 1312.46 124.4 1313.19 126.99C1321.45 126.64 1326.6 127.32 1328.45 128.31C1327.22 130.12 1322.75 133.18 1314.84 136.79C1305.76 140.94 1292.14 145.79 1273.76 150.24C1255.37 154.69 1241.04 156.59 1231.07 157.06C1222.38 157.46 1217.01 156.79 1215.08 155.74C1216.28 154.01 1220.55 151.05 1228.06 147.59C1227.52 144.95 1227.24 142.32 1227.21 139.74C1215.36 144.97 1205.96 151.22 1207.49 157.58C1209.11 164.25 1221.43 165.29 1235.17 164.26C1252.39 162.96 1271.86 158.41 1275.52 157.52C1279.18 156.63 1298.6 151.78 1314.51 145.06C1327.2 139.7 1337.66 133.14 1336.05 126.47C1334.51 120.11 1323.29 118.85 1310.36 119.62Z" />
	</g>
</svg>