<svg xmlns="http://www.w3.org/2000/svg" viewBox="0 0 777 757" width="777" height="757">
	<defs>
		<clipPath clipPathUnits="userSpaceOnUse" id="cp1">
			<path d="M-723 -143L777 -143L777 857L-723 857Z" />
		</clipPath>
	</defs>
	<style>
		tspan { white-space:pre }
		.shp0 { fill: #1f596b } 
		.shp1 { fill: #1b4958 } 
		.shp2 { fill: #22465c } 
		.shp3 { opacity: 0.239;mix-blend-mode: multiply;fill: #7b3ea3 } 
		.shp4 { fill: #e05edc } 
		.shp5 { fill: #ffd77e } 
		.shp6 { fill: #eca400 } 
		.shp7 { fill: #214a81 } 
		.shp8 { fill: #ffffff } 
		.shp9 { fill: #cee0f0 } 
		.shp10 { fill: #d49300 } 
		.shp11 { fill: #60e0ec } 
		.shp12 { fill: #71f2ff } 
		.shp13 { fill: #aef8ff } 
		.shp14 { fill: #143844 } 
	</style>
	<g id="Page 1" clip-path="url(#cp1)">
		<path id="Path 14" class="shp0" d="M776.14 1.69L776.14 756.76L14.51 756.76L8.1 756.76C-5.9 704.4 -7.02 591.08 48.3 563.23C76.1 549.26 108.37 548.68 139.39 546.26C145.57 545.79 151.84 545.19 158.08 544.34C183.13 541.05 207.89 534.18 226.28 517.39C243.13 502.02 251.91 480.73 255.5 457.97C256.9 449.06 257.5 439.93 257.48 430.82C257.48 428.48 257.43 426.15 257.33 423.83C257.13 418.74 256.75 413.67 256.23 408.71C252.06 369.9 240.46 331.6 242.83 292.64C248.17 205.3 335.06 131.66 422.1 140.77C449.43 143.61 475.58 153.32 502.63 157.96C572.46 169.86 585.16 125.47 613.18 77.13C643.45 24.98 717.52 -4.42 776.14 1.69Z" />
		<path id="Path 15" class="shp1" d="M776.14 259.88L776.14 266.84L697.9 342.53L684.56 355.43L674.12 338.91L624.99 261.15L554.47 378.71L507.65 290.02L375.29 419.09L361.99 432.07L351.03 420.49L317.56 385.1L310.11 377.22L302.47 384.98L257.48 430.82C257.48 428.48 257.43 426.15 257.33 423.83L298.93 381.48L310.16 370.03L321.18 381.69L353.95 416.3L362.14 424.95L372.02 415.32L508.95 281.76L554.74 368.53L624.89 251.64L677.87 335.49L685.5 347.57L695.29 338.11L776.14 259.88ZM323.83 373.62C323.83 381.19 317.7 387.32 310.13 387.32C302.57 387.32 296.43 381.19 296.43 373.62C296.43 366.06 302.57 359.92 310.13 359.92C317.7 359.92 323.83 366.06 323.83 373.62ZM377.23 426.08C377.23 433.64 371.1 439.78 363.54 439.78C355.97 439.78 349.83 433.64 349.83 426.08C349.83 418.51 355.97 412.38 363.54 412.38C371.1 412.38 377.23 418.51 377.23 426.08ZM638.64 256.39C638.64 263.96 632.51 270.09 624.94 270.09C617.38 270.09 611.24 263.96 611.24 256.39C611.24 248.82 617.38 242.69 624.94 242.69C632.51 242.69 638.64 248.82 638.64 256.39ZM698.72 347.16C698.72 354.73 692.59 360.86 685.02 360.86C677.46 360.86 671.33 354.73 671.33 347.16C671.33 339.59 677.46 333.46 685.02 333.46C692.59 333.46 698.72 339.59 698.72 347.16Z" />
		<path id="Path 16" class="shp2" d="M776.14 426.08L776.14 756.76L14.51 756.76L8.1 756.76C-5.9 704.4 -7.02 591.08 48.3 563.23C76.1 549.25 108.37 548.68 139.39 546.26C145.57 545.79 151.84 545.19 158.08 544.34C183.13 541.04 207.89 534.18 226.28 517.39C243.13 502.02 251.91 480.73 255.5 457.97L278.72 457.97C284.35 457.97 288.92 462.53 288.92 468.16L288.92 513.11C288.92 518.74 293.48 523.3 299.11 523.3L303.83 523.3C309.46 523.3 314.02 527.87 314.02 533.5L314.02 551.94C314.02 557.57 318.59 562.13 324.22 562.13L348.87 562.13C354.5 562.13 359.07 557.57 359.07 551.94L359.07 497.85C359.07 495.15 360.14 492.56 362.05 490.65L382.13 470.57C386.11 466.59 392.56 466.59 396.55 470.57L414.52 488.55C416.44 490.46 417.51 493.05 417.51 495.76L417.51 528.11C417.51 533.74 422.07 538.3 427.71 538.3C433.34 538.3 437.9 533.74 437.9 528.11L437.9 512.43C437.9 506.81 442.46 502.24 448.09 502.24L503.92 502.24C509.55 502.24 514.11 506.81 514.11 512.43L514.11 551.94C514.11 557.57 518.68 562.13 524.31 562.13L549 562.13C551.7 562.13 554.29 561.06 556.2 559.15L585.61 529.75C589.59 525.78 596.05 525.78 600.03 529.75L626.99 556.7C628.9 558.61 629.98 561.21 629.98 563.91L629.98 574.37C629.98 580 634.54 584.57 640.17 584.57L646.81 584.57C652.44 584.57 657.01 580 657.01 574.37L657.01 525.5C657.01 522.8 658.08 520.21 659.99 518.3L676.17 502.11C680.15 498.13 686.61 498.13 690.59 502.11L707.97 519.49C709.88 521.4 710.96 524 710.96 526.7L710.96 545.28C710.96 550.91 715.52 555.47 721.15 555.47L724.05 555.47C729.68 555.47 734.24 550.91 734.24 545.28L734.24 485.51C734.24 479.88 738.81 475.31 744.44 475.31L752.87 475.31C758.5 475.31 763.06 470.75 763.06 465.12L763.06 436.27C763.06 430.64 767.63 426.08 773.26 426.08L776.14 426.08Z" />
		<path id="Path 17" class="shp3" d="M66.47 590.99C94.25 577.01 126.53 576.43 157.55 574.01C188.56 571.59 221.46 566.13 244.43 545.15C273.25 518.83 278.52 475.26 274.37 436.45C270.22 397.65 258.6 359.35 260.97 320.39C266.31 233.04 353.21 159.41 440.25 168.51C467.58 171.36 493.73 181.08 520.8 185.71C590.6 197.61 603.31 153.24 631.35 104.88C658.55 57.99 721.17 29.51 776.14 28.68L776.14 1.68C717.53 -4.43 643.44 24.97 613.19 77.13C585.15 125.48 572.45 169.86 502.64 157.95C475.57 153.33 449.43 143.61 422.1 140.76C335.05 131.66 248.16 205.29 242.82 292.64C240.44 331.59 252.07 369.9 256.22 408.7C260.36 447.5 255.09 491.08 226.27 517.39C203.31 538.37 170.4 543.84 139.4 546.26C108.37 548.68 76.09 549.26 48.31 563.24C-7.02 591.09 -5.9 704.41 8.1 756.76L20.9 756.76C13.24 699.52 19.59 614.59 66.47 590.99Z" />
		<path id="Path 18" class="shp4" d="M403.68 438.39C413.16 422 429.04 402.91 453.94 395.29L433.95 316.62C433.95 316.62 415.84 355.16 386.27 434.56C384.71 438.76 390.19 442.51 394.27 442.51L396.94 442.51C399.67 442.51 402.2 440.96 403.68 438.39Z" />
		<path id="Path 19" class="shp5" d="M433.95 316.62C433.95 316.62 415.85 355.16 386.27 434.55C385.03 437.88 388.21 440.91 391.61 442.04C402.37 403.32 420.03 367.68 437.89 332.14L433.95 316.62Z" />
		<path id="Path 20" class="shp6" d="M391.61 442.04C392.5 442.33 393.42 442.51 394.27 442.51L396.94 442.51C399.67 442.51 402.2 440.96 403.68 438.39C413.16 422 429.04 402.91 453.94 395.29L437.89 332.14C420.03 367.68 402.37 403.32 391.61 442.04Z" />
		<path id="Path 21" class="shp6" d="M594.82 438.39C585.35 422 569.47 402.91 544.57 395.29L564.56 316.62C564.56 316.62 582.66 355.16 612.24 434.56C613.8 438.76 608.32 442.51 604.24 442.51L601.57 442.51C598.83 442.51 596.31 440.96 594.82 438.39Z" />
		<path id="Path 22" class="shp7" d="M522.03 418.53L474.57 418.53C472.7 418.53 471.08 417.08 470.67 415.04L468.06 402.2C467.49 399.4 469.4 396.73 471.97 396.73L524.63 396.73C527.2 396.73 529.11 399.4 528.54 402.2L525.94 415.04C525.52 417.08 523.9 418.53 522.03 418.53Z" />
		<path id="Path 23" class="shp8" d="M429.96 286.37C429.96 286.37 437.24 361.08 459.75 408.43C459.75 408.43 495.51 389.19 537.88 408.43C537.88 408.43 563.7 368.48 569 280.45C572.05 229.72 568.41 171.81 553.37 121.91L448.35 121.91C434.38 162.56 424.43 217.14 429.96 286.37ZM565.64 181.27C562.96 160.94 558.91 140.93 553.23 122.07L448.21 122.07C434.24 162.72 424.28 217.3 429.82 286.53C429.82 286.53 432.29 311.82 438.78 342.28C501.38 316.07 547.2 253 565.64 181.27Z" />
		<path id="Path 24" class="shp9" d="M438.78 342.28C443.45 364.19 450.2 388.78 459.61 408.59C459.61 408.59 495.37 389.35 537.74 408.59C537.74 408.59 563.56 368.64 568.86 280.61C570.76 249.06 570.06 214.72 565.64 181.27C547.2 253 501.38 316.06 438.78 342.28Z" />
		<path id="Path 25" class="shp6" d="M490.93 41.11C480.37 54.47 462.26 81.23 448.21 122.07L553.23 122.07C543.6 90.14 529.33 61.49 509.12 40.12C503.92 34.63 495.67 35.12 490.93 41.11ZM501.34 36.39C497.54 36.11 493.66 37.67 490.93 41.11C480.37 54.46 462.26 81.23 448.21 122.07L509.71 122.07C511.37 119.48 512.62 116.44 513.37 113.1C516.03 84.87 511.51 59.31 501.34 36.39Z" />
		<path id="Path 26" class="shp5" d="M485.8 88.81C493.17 76.36 495.97 63.91 492.05 61.01C488.13 58.12 478.98 65.87 471.61 78.32C464.23 90.78 461.44 103.23 465.36 106.12C469.28 109.02 478.44 101.27 485.8 88.81Z" />
		<path id="Path 27" class="shp10" d="M509.12 40.12C506.91 37.79 504.15 36.6 501.34 36.39C511.52 59.31 516.03 84.87 513.37 113.1C512.62 116.43 511.37 119.48 509.71 122.07L553.23 122.07C543.6 90.14 529.33 61.49 509.12 40.12Z" />
		<path id="Path 28" class="shp6" d="M505.8 435.9C513.63 404.33 521.04 347.26 497.51 282.91C497.51 282.91 470.94 350.41 490.23 435.67C491.13 439.68 494.34 442.51 498.04 442.51C501.67 442.51 504.82 439.8 505.8 435.9ZM496.77 284.92C492.93 295.81 475.58 350.44 487.1 419.72C500.25 376.61 500.62 330.76 496.77 284.92Z" />
		<path id="Path 29" class="shp10" d="M497.5 282.91C497.5 282.91 497.23 283.62 496.77 284.92C500.62 330.76 500.26 376.61 487.1 419.72C487.97 424.96 489.01 430.28 490.23 435.67C491.13 439.68 494.34 442.51 498.04 442.51C501.66 442.51 504.83 439.8 505.79 435.9C513.63 404.33 521.04 347.26 497.5 282.91Z" />
		<path id="Path 30" class="shp6" d="M546.09 206.87C546.09 231.87 525.82 252.14 500.82 252.14C475.82 252.14 455.55 231.87 455.55 206.87C455.55 181.87 475.82 161.6 500.82 161.6C525.82 161.6 546.09 181.87 546.09 206.87Z" />
		<path id="Path 31" class="shp7" d="M532.25 206.87C532.25 224.23 518.18 238.3 500.82 238.3C483.46 238.3 469.39 224.23 469.39 206.87C469.39 189.51 483.46 175.44 500.82 175.44C518.18 175.44 532.25 189.51 532.25 206.87Z" />
		<path id="Path 32" class="shp1" d="M503.11 175.56C494.42 193.18 486.72 211 478 228.45C481.87 232.53 486.82 235.55 492.37 237.11C499.66 217.48 508.23 198.69 517.22 180.1C513.06 177.54 508.26 175.93 503.11 175.56Z" />
		<path id="Path 33" class="shp0" d="M517.22 180.1C508.23 198.69 499.66 217.48 492.37 237.11C495.06 237.86 497.88 238.3 500.82 238.3C518.18 238.3 532.25 224.23 532.25 206.87C532.25 195.53 526.23 185.61 517.22 180.1ZM500.82 175.44C483.46 175.44 469.39 189.51 469.39 206.87C469.39 215.23 472.68 222.82 478.01 228.45C486.72 211 494.42 193.18 503.11 175.56C502.35 175.5 501.59 175.44 500.82 175.44Z" />
		<path id="Path 34" class="shp8" d="M698.62 176.44L702.01 184.72C702.17 185.11 702.49 185.43 702.88 185.59L711.16 188.98C712.49 189.52 712.49 191.4 711.16 191.94L702.88 195.33C702.49 195.5 702.17 195.81 702.01 196.21L698.62 204.49C698.08 205.81 696.2 205.81 695.66 204.49L692.27 196.21C692.11 195.81 691.79 195.5 691.39 195.33L683.11 191.94C681.78 191.4 681.78 189.52 683.11 188.98L691.39 185.59C691.79 185.43 692.11 185.11 692.27 184.72L695.66 176.44C696.2 175.11 698.08 175.11 698.62 176.44ZM360.56 295L363.95 303.28C364.11 303.67 364.43 303.99 364.82 304.15L373.1 307.54C374.43 308.08 374.43 309.96 373.1 310.5L364.82 313.89C364.43 314.05 364.11 314.37 363.95 314.77L360.56 323.05C360.02 324.38 358.14 324.38 357.6 323.05L354.21 314.77C354.05 314.37 353.73 314.05 353.33 313.89L345.05 310.5C343.73 309.96 343.73 308.08 345.05 307.54L353.33 304.15C353.73 303.99 354.05 303.67 354.21 303.28L357.6 295C358.14 293.67 360.02 293.67 360.56 295ZM589.87 464.58L593.26 472.86C593.42 473.26 593.74 473.58 594.13 473.74L602.41 477.12C603.74 477.67 603.74 479.55 602.41 480.09L594.13 483.48C593.74 483.64 593.42 483.96 593.26 484.35L589.87 492.63C589.33 493.96 587.45 493.96 586.91 492.63L583.52 484.35C583.35 483.96 583.04 483.64 582.64 483.48L574.36 480.09C573.03 479.55 573.03 477.67 574.36 477.12L582.64 473.74C583.04 473.58 583.35 473.26 583.52 472.86L586.91 464.58C587.45 463.25 589.33 463.25 589.87 464.58Z" />
		<path id="Path 35" class="shp11" d="M776.14 642.26L776.14 756.76L14.51 756.76C14.66 755.81 14.89 754.86 15.19 753.94C18.68 742.81 28.86 734.4 40.22 731.73C51.57 729.08 57.64 728.23 67.69 734.15C57.21 713.78 60.43 687.16 75.45 669.89C90.5 652.6 116.4 645.73 138.02 653.32C153.29 658.66 167.59 670.93 175.05 685.76C174.75 672.46 180.36 658.91 190.95 650.75C205.74 639.32 228.93 639.42 243.6 650.85C244.8 651.77 245.95 652.77 247.02 653.84C246.15 652.55 245.35 651.17 244.62 649.8C235.76 632.75 239.41 610.19 252.11 595.52C265.84 579.65 288.27 572.79 309.11 575.26C329.94 577.75 349.96 590.95 365.18 605.38C473.31 570.44 476.81 418.52 476.81 418.52L496.94 412.38L517.1 418.52C517.1 418.52 520.58 570.44 628.73 605.38C643.95 590.95 663.97 577.75 684.8 575.26C705.64 572.79 728.07 579.65 741.8 595.52C755.53 611.39 758.67 636.47 746.87 653.84C754.45 646.23 765.26 642.36 776.14 642.26Z" />
		<path id="Path 36" class="shp12" d="M724.96 756.76L363.53 756.76C365.66 737.77 374.04 719.17 390.79 710.57C410.5 700.41 436.9 705.72 451.15 722.72C442.49 683.61 472.31 640.39 511.92 634.55C551.52 628.74 592.52 661.55 595.49 701.48C596.76 683.81 615.65 669.64 632.97 673.36C650.27 677.07 661.67 697.76 655.58 714.38C671.45 700.06 698.48 700.56 713.83 715.46C724.56 725.89 728.4 742.28 724.96 756.76Z" />
		<path id="Path 37" class="shp13" d="M468.97 756.76L158.43 756.76C156.18 740.71 164.62 723.44 179.02 715.81C194.79 707.45 216.15 711.56 227.73 725.19C220.84 701.83 224.16 674.98 239.18 655.84C240.56 654.09 242.03 652.42 243.6 650.85C243.92 650.5 244.27 650.15 244.62 649.8C260.22 634.75 284.03 627.96 304.36 635.37C324.46 642.69 338.41 664.77 336.03 685.61C342.45 668.79 362.94 657.59 380.38 663.35C400.62 670.04 410.55 697.56 399.25 715.65C413.37 702.75 436.55 701.28 452.2 712.29C465.98 721.97 472.61 740.46 468.97 756.76Z" />
		<path id="Path 38" class="shp14" d="M732.99 439.45C738.69 462.99 724.22 486.69 700.68 492.39C677.14 498.08 653.44 483.62 647.75 460.08C642.05 436.54 656.52 412.84 680.06 407.15C703.6 401.45 727.3 415.91 732.99 439.45Z" />
		<path id="Path 39" class="shp1" d="M732.99 439.45C729.59 425.4 719.75 414.63 707.38 409.4C713.24 415 717.64 422.26 719.68 430.72C725.38 454.26 710.91 477.96 687.37 483.65C677.89 485.95 668.39 484.93 660.04 481.4C670.48 491.38 685.6 496.04 700.68 492.39C724.22 486.69 738.69 462.99 732.99 439.45Z" />
		<path id="Path 40" class="shp0" d="M537.36 76.62C538.51 78.93 539.46 81.4 540.19 83.99C548.45 83.64 553.6 84.32 555.45 85.31C554.22 87.12 549.75 90.18 541.84 93.79C532.76 97.94 519.14 102.79 500.76 107.24C482.37 111.69 468.04 113.59 458.07 114.06C449.38 114.46 444.01 113.79 442.08 112.74C443.28 111.01 447.55 108.05 455.06 104.59C454.52 101.95 454.24 99.32 454.21 96.74C442.36 101.97 432.96 108.22 434.49 114.58C436.11 121.25 448.43 122.29 462.17 121.26C479.39 119.96 498.86 115.41 502.52 114.52C506.18 113.63 525.6 108.78 541.51 102.06C554.2 96.7 564.66 90.14 563.05 83.47C561.51 77.11 550.29 75.85 537.36 76.62Z" />
	</g>
</svg>