<svg id="Layer_5" enable-background="new 0 0 64 64" height="512" viewBox="0 0 64 64" width="512" xmlns="http://www.w3.org/2000/svg"><g><g><g><path d="m22 20h20v24h-20z" fill="#e6e9ed"/></g><g><path d="m26 36h4v4h-4z" fill="#5cd6b3"/></g><g><path d="m38 32v8h-4v-6-2z" fill="#5cd6b3"/></g><g><path d="m34 34v6h-4v-4-2z" fill="#5cd6b3"/></g><g><path d="m13.37 41.32c1.41 2.82.4 6.28-2.37 7.88-2.87 1.65-6.54.67-8.2-2.2-1.65-2.87-.67-6.54 2.2-8.2 2.87-1.65 6.54-.67 8.2 2.2.06.1.12.21.17.32z" fill="#ff826e"/></g><g><circle cx="32" cy="58" fill="#fcd770" r="4"/></g><g><path d="m8 15.54c1.91 1.1 2.57 3.55 1.46 5.46-1.1 1.91-3.55 2.57-5.46 1.46-1.91-1.1-2.57-3.55-1.46-5.46 1.1-1.91 3.55-2.57 5.46-1.46z" fill="#fcd770"/></g><g><path d="m32 2c3.31 0 6 2.69 6 6s-2.69 6-6 6-6-2.69-6-6 2.69-6 6-6z" fill="#ff826e"/></g><g><path d="m61.46 17c1.11 1.91.45 4.36-1.46 5.46-1.91 1.11-4.36.45-5.46-1.46-.04-.07-.08-.14-.11-.21-.95-1.87-.27-4.19 1.57-5.25 1.91-1.11 4.36-.45 5.46 1.46z" fill="#fcd770"/></g><g><path d="m50.63 41.32c.05-.11.11-.22.17-.32 1.66-2.87 5.33-3.85 8.2-2.2 2.87 1.66 3.85 5.33 2.2 8.2-1.66 2.87-5.33 3.85-8.2 2.2-2.77-1.6-3.78-5.06-2.37-7.88z" fill="#ff826e"/></g><g><circle cx="32" cy="8" fill="#fc6e51" r="2"/></g><g><path d="m9.73 43c.55.96.23 2.18-.73 2.73s-2.18.23-2.73-.73c-.56-.96-.23-2.18.73-2.73.96-.56 2.18-.23 2.73.73z" fill="#fc6e51"/></g><g><path d="m57 42.27c.96.55 1.29 1.77.73 2.73-.55.96-1.77 1.28-2.73.73s-1.28-1.77-.73-2.73 1.77-1.29 2.73-.73z" fill="#fc6e51"/></g></g><g><path d="m35 8c0-1.654-1.346-3-3-3s-3 1.346-3 3 1.346 3 3 3 3-1.346 3-3zm-4 0c0-.552.449-1 1-1s1 .448 1 1-.449 1-1 1-1-.448-1-1z"/><path d="m6.5 41.4c-1.433.828-1.925 2.666-1.099 4.099.555.961 1.565 1.499 2.604 1.499.508 0 1.023-.129 1.495-.4 1.432-.828 1.924-2.666 1.098-4.099-.828-1.432-2.667-1.925-4.098-1.099zm2 3.465c-.479.277-1.091.111-1.366-.366-.276-.478-.111-1.091.366-1.366.477-.276 1.09-.11 1.365.366.276.478.111 1.091-.365 1.366z"/><path d="m57.5 41.4c-1.432-.825-3.271-.332-4.098 1.099-.827 1.433-.334 3.271 1.098 4.099h.001c.471.271.986.4 1.494.4 1.038 0 2.049-.538 2.604-1.499.827-1.433.334-3.27-1.099-4.099zm-.633 3.099c-.275.478-.889.643-1.365.366-.478-.275-.642-.889-.366-1.366.275-.478.888-.644 1.365-.366.477.275.642.888.366 1.366z"/><path d="m59.501 37.937c-1.619-.935-3.504-1.186-5.312-.699-1.617.433-2.992 1.41-3.935 2.771l-7.254-3.628v-8.763l11.082-5.542c.664.848 1.565 1.469 2.624 1.753.431.116.868.173 1.302.173.866 0 1.721-.228 2.492-.672 1.157-.668 1.984-1.746 2.33-3.036s.168-2.638-.5-3.794-1.746-1.983-3.036-2.329c-1.289-.349-2.637-.168-3.794.499-1.157.668-1.984 1.746-2.33 3.036-.231.861-.208 1.743.018 2.581l-10.188 5.095v-6.382h-10v-4.08c3.387-.488 6-3.401 6-6.92 0-3.859-3.14-7-7-7s-7 3.141-7 7c0 3.519 2.613 6.432 6 6.92v4.08h-10v6.381l-10.188-5.094c.226-.838.249-1.72.018-2.581-.346-1.29-1.173-2.368-2.33-3.036-1.157-.667-2.505-.848-3.794-.499-1.29.346-2.368 1.173-3.036 2.329s-.846 2.504-.5 3.794 1.173 2.368 2.33 3.036c.771.444 1.625.672 2.492.672.435 0 .872-.057 1.302-.173 1.059-.284 1.96-.905 2.623-1.753l11.083 5.541v8.763l-7.255 3.627c-.942-1.361-2.318-2.338-3.935-2.771-1.806-.485-3.692-.236-5.312.699-3.342 1.931-4.492 6.22-2.563 9.563 1.295 2.243 3.652 3.499 6.074 3.499 1.187 0 2.389-.302 3.488-.937 2.923-1.688 4.169-5.181 3.145-8.266l6.358-3.177v6.383h10v8.101c-2.279.465-4 2.484-4 4.899 0 2.757 2.243 5 5 5s5-2.243 5-5c0-2.414-1.721-4.434-4-4.899v-8.101h10v-6.383l6.356 3.178c-1.024 3.086.222 6.578 3.145 8.266 1.1.635 2.302.937 3.488.937 2.421 0 4.779-1.256 6.074-3.499 1.93-3.343.78-7.632-2.562-9.562zm-4.399-19.713c.208-.773.704-1.421 1.398-1.821.471-.272.986-.401 1.495-.401 1.038 0 2.048.538 2.603 1.499.4.694.507 1.502.3 2.276-.208.773-.704 1.421-1.398 1.821-1.432.828-3.271.335-4.098-1.098-.401-.694-.507-1.502-.3-2.276zm-28.102-10.224c0-2.757 2.243-5 5-5s5 2.243 5 5-2.243 5-5 5-5-2.243-5-5zm-18.402 12.5c-.827 1.433-2.666 1.926-4.098 1.098-.694-.4-1.19-1.048-1.398-1.821-.207-.774-.101-1.582.3-2.276.555-.961 1.565-1.499 2.603-1.499.509 0 1.024.129 1.495.401.694.4 1.19 1.048 1.398 1.821.207.774.101 1.582-.3 2.276zm1.901 27.829c-2.389 1.378-5.452.558-6.83-1.83s-.557-5.451 1.83-6.83c.771-.445 1.625-.673 2.492-.673.435 0 .872.058 1.302.173 1.29.346 2.368 1.173 3.036 2.33 1.379 2.388.557 5.451-1.83 6.83zm24.501 9.671c0 1.654-1.346 3-3 3s-3-1.346-3-3 1.346-3 3-3 3 1.346 3 3zm6-15h-18v-22h18zm19.331 3.499c-1.377 2.389-4.443 3.209-6.83 1.83s-3.208-4.442-1.83-6.83c.668-1.157 1.746-1.984 3.036-2.33 1.289-.345 2.637-.169 3.794.5 2.387 1.379 3.208 4.442 1.83 6.83z"/><path d="m39 31h-6v2h-4v2h-4v6h14zm-12 6h2v2h-2zm4 2v-4h2v4zm6 0h-2v-6h2z"/><path d="m25 23h2v2h-2z"/><path d="m29 23h10v2h-10z"/><path d="m25 27h14v2h-14z"/></g></g></svg>